<?xml version="1.0" standalone="no"?>
<!DOCTYPE svg PUBLIC "-//W3C//DTD SVG 20010904//EN"
 "http://www.w3.org/TR/2001/REC-SVG-20010904/DTD/svg10.dtd">
<svg version="1.0" xmlns="http://www.w3.org/2000/svg"
 width="585.000000pt" height="626.000000pt" viewBox="0 0 585.000000 626.000000"
 preserveAspectRatio="xMidYMid meet">
<metadata>
Created by potrace 1.15, written by Peter Selinger 2001-2017
</metadata>
<g transform="translate(0.000000,626.000000) scale(0.100000,-0.100000)"
fill="#000000" stroke="none">
<path d="M2695 5954 c-196 -19 -478 -71 -560 -104 -11 -4 -56 -18 -100 -30
-44 -12 -91 -28 -105 -35 -55 -27 -121 -55 -131 -55 -13 0 -209 -97 -264 -131
-22 -14 -57 -33 -78 -44 -21 -11 -46 -27 -55 -35 -9 -9 -44 -32 -77 -52 -33
-20 -74 -49 -92 -65 -17 -15 -58 -47 -91 -71 -65 -47 -326 -302 -369 -360 -30
-41 -115 -144 -124 -152 -3 -3 -33 -45 -65 -95 -226 -343 -368 -689 -440
-1070 -101 -540 -27 -1162 196 -1650 52 -114 119 -245 135 -265 7 -8 29 -44
49 -80 21 -36 55 -90 77 -120 21 -30 47 -66 56 -80 9 -14 21 -29 27 -35 6 -5
34 -38 61 -73 89 -112 316 -336 400 -395 17 -12 36 -27 44 -35 19 -19 160
-122 166 -122 7 0 88 -53 95 -62 3 -3 75 -42 160 -86 303 -157 525 -230 870
-289 182 -31 504 -42 696 -24 177 17 523 86 609 122 11 4 65 24 120 44 55 20
123 47 150 60 164 76 299 147 326 171 8 8 19 14 24 14 4 0 23 11 41 25 18 14
35 25 39 25 8 0 199 143 203 152 2 5 7 8 11 8 22 0 294 267 393 385 71 85 89
109 164 220 27 39 51 72 54 75 3 3 16 25 28 50 12 25 34 63 47 85 54 86 195
396 195 427 0 6 7 24 15 41 19 43 58 187 90 332 68 314 74 731 13 1065 -11 63
-21 122 -23 130 -1 8 -5 22 -8 30 -4 8 -16 53 -27 99 -20 79 -109 331 -130
369 -5 9 -30 62 -56 116 -25 55 -63 127 -85 161 -21 34 -39 65 -39 68 0 9
-158 237 -198 287 -129 158 -438 460 -471 460 -6 0 -11 4 -11 9 0 5 -23 24
-52 42 -29 19 -62 43 -74 54 -12 11 -39 29 -61 40 -21 11 -40 22 -43 25 -10
11 -110 70 -119 70 -5 0 -11 3 -13 8 -4 10 -128 72 -144 72 -7 0 -14 3 -16 8
-4 8 -74 42 -89 42 -5 0 -40 14 -77 31 -132 62 -418 140 -637 174 -95 15 -536
28 -630 19z m506 -25 c206 -21 434 -72 619 -138 44 -16 49 -20 25 -19 -35 1
-85 17 -85 28 0 5 -9 6 -21 3 -16 -4 -17 -8 -7 -14 9 -6 2 -9 -19 -9 -32 0
-33 -2 -33 -40 l0 -40 -80 0 c-64 0 -80 -3 -80 -15 0 -11 -11 -15 -40 -15 -22
0 -40 -4 -40 -10 0 -6 -47 -10 -120 -10 -100 0 -120 -2 -120 -15 0 -12 -16
-15 -80 -15 -64 0 -80 -3 -80 -15 0 -12 -20 -15 -120 -15 -100 0 -120 3 -120
15 0 11 11 15 40 15 29 0 40 4 40 15 0 12 -16 15 -80 15 -64 0 -80 -3 -80 -15
0 -12 -16 -15 -80 -15 -64 0 -80 3 -80 15 0 12 -16 15 -80 15 -79 0 -80 0 -80
25 0 23 -4 25 -40 25 -29 0 -40 -4 -40 -15 0 -11 -11 -15 -40 -15 -38 0 -40 2
-40 30 0 28 -2 30 -40 30 -36 0 -40 3 -40 25 0 14 5 25 11 25 6 0 4 7 -5 15
-8 8 -25 15 -37 15 -61 0 55 40 191 65 47 9 93 21 102 26 10 5 45 9 77 9 33 0
62 4 65 8 3 5 36 10 73 11 37 1 70 4 72 7 9 8 392 4 492 -7z m-312 -889 c48
-24 87 -69 120 -140 22 -46 26 -69 26 -145 0 -82 -3 -97 -32 -156 -20 -39 -52
-84 -79 -109 -32 -30 -44 -47 -38 -55 35 -49 131 -153 138 -151 9 2 96 268 96
293 0 7 6 13 13 14 11 0 202 0 220 -1 4 0 7 -37 5 -82 l-3 -83 -62 -3 -62 -3
-40 -128 c-23 -71 -41 -134 -41 -141 0 -6 54 -72 121 -145 l120 -134 -42 -72
-43 -72 -63 69 c-34 38 -82 92 -105 121 -24 29 -46 52 -50 53 -4 0 -19 -23
-34 -52 -37 -72 -115 -151 -177 -179 -186 -82 -368 54 -408 306 -22 130 24
259 127 360 l67 66 -25 27 c-72 79 -104 172 -96 284 9 118 81 232 169 267 43
17 137 13 178 -9z m-1475 -50 c5 -19 25 -89 44 -155 19 -66 43 -147 52 -180
66 -224 182 -611 186 -614 7 -7 9 0 32 84 28 103 112 384 212 715 16 52 32
109 35 125 16 71 -2 66 198 63 l182 -3 0 -85 0 -85 -62 -3 -63 -3 0 -474 0
-475 59 0 c33 0 62 -4 66 -9 3 -6 3 -45 -1 -88 l-6 -78 -193 0 -193 0 -7 77
c-3 43 -4 82 0 88 3 5 35 10 71 10 l64 0 0 465 c0 256 -2 465 -5 465 -2 0 -12
-26 -21 -57 -9 -32 -81 -274 -160 -538 -79 -264 -144 -485 -144 -492 0 -15
-24 -21 -75 -19 -38 1 -40 3 -57 51 -15 45 -233 774 -289 968 -12 43 -25 74
-28 70 -3 -4 -5 -212 -3 -460 l2 -453 66 0 65 0 -3 -87 -3 -86 -195 0 -195 0
-3 87 -3 86 61 0 60 0 0 465 c0 256 1 468 3 473 1 4 -26 8 -60 10 l-63 3 0 90
0 89 182 -2 182 -3 10 -35z m2451 -15 c11 -46 42 -149 216 -734 43 -146 66
-207 71 -195 4 11 28 91 54 179 25 88 68 232 94 320 60 199 115 387 130 443
l11 42 179 0 c98 0 181 -3 184 -8 2 -4 2 -45 -1 -90 l-6 -82 -58 0 -59 0 0
-475 0 -475 59 0 c33 0 62 -3 64 -7 2 -5 1 -43 -2 -87 l-6 -78 -195 -1 -195 0
0 84 0 84 63 3 62 3 0 367 c0 202 3 412 6 467 8 121 -2 117 -40 -15 -79 -274
-288 -967 -294 -979 -10 -17 -99 -22 -111 -6 -8 11 -23 61 -201 660 -139 471
-130 439 -133 434 -2 -2 -1 -212 1 -466 l4 -462 62 -3 61 -3 0 -84 0 -83 -195
0 -195 0 -5 82 c-3 45 -3 84 -1 86 2 2 31 4 63 4 l58 0 0 475 0 475 -59 0 -58
0 -5 83 c-3 45 -3 85 -1 90 2 4 86 6 185 5 l182 -3 11 -50z m-1328 -1513 c56
-29 128 -112 152 -176 57 -152 24 -333 -79 -436 -174 -174 -436 -54 -468 213
-24 200 63 368 218 418 40 13 133 3 177 -19z m1568 -1 c44 -26 41 -25 48 -1 4
14 14 20 35 20 17 0 33 -4 36 -8 3 -5 2 -48 -1 -95 l-6 -87 -33 0 c-26 0 -41
8 -66 36 -79 87 -189 86 -269 -3 -77 -85 -92 -236 -34 -342 34 -61 59 -83 121
-107 59 -22 113 -7 167 47 35 35 45 39 88 39 27 0 49 -4 49 -8 0 -19 -60 -100
-94 -129 -73 -60 -186 -71 -274 -27 -69 34 -133 119 -157 207 -25 94 -18 224
17 298 34 74 87 132 151 164 45 23 61 26 119 22 44 -3 79 -12 103 -26z m-2664
9 c79 -22 124 -94 124 -200 0 -62 -4 -83 -25 -118 -34 -60 -93 -93 -176 -100
l-65 -5 3 -91 c3 -83 5 -91 23 -92 11 -1 26 -2 33 -3 12 -1 17 -56 7 -83 -4
-10 -31 -13 -108 -13 l-102 0 -3 47 c-3 46 -3 47 30 50 l33 3 3 258 2 257 -35
0 c-35 0 -35 0 -35 43 0 24 3 47 7 50 10 11 244 8 284 -3z m474 -1 c56 -15
104 -54 126 -103 25 -56 25 -176 0 -231 -18 -41 -72 -95 -94 -95 -7 0 -18 -4
-26 -9 -12 -8 -6 -22 29 -78 52 -81 65 -93 103 -93 28 0 29 -1 22 -42 -4 -24
-9 -46 -11 -49 -3 -6 -103 -4 -109 3 -3 3 -24 38 -134 226 -24 39 -45 72 -47
72 -2 0 -4 -47 -4 -105 l0 -105 34 0 c33 0 34 -1 29 -37 -2 -21 -6 -42 -7 -48
-2 -6 -44 -10 -102 -9 l-99 1 0 49 c0 47 1 48 30 49 l30 0 3 258 2 257 -34 0
c-33 0 -34 1 -38 46 -2 25 -1 47 1 50 9 9 258 3 296 -7z m1233 -41 l3 -48 -35
0 -34 0 -4 -242 c-3 -231 -4 -245 -26 -286 -29 -54 -73 -82 -132 -82 -83 0
-134 50 -147 145 l-6 45 41 0 c38 0 42 -3 50 -32 4 -17 20 -41 35 -52 26 -19
30 -19 55 -5 44 24 51 64 51 297 l1 212 -35 0 c-35 0 -35 0 -35 43 0 24 3 47
7 51 4 4 52 5 107 4 l101 -3 3 -47z m463 48 c2 -2 3 -52 1 -110 l-3 -106 -35
0 -34 0 0 60 0 60 -95 0 -95 0 0 -100 0 -99 98 -3 97 -3 3 -47 3 -48 -101 0
-101 0 3 -107 3 -108 93 -3 92 -3 0 61 0 60 35 0 36 0 -3 -106 -3 -105 -200
-1 -200 0 0 48 c0 48 1 49 30 49 l30 0 3 258 2 257 -35 0 c-35 0 -35 0 -35 43
0 24 3 47 7 50 7 7 397 10 404 3z m1087 -108 l3 -108 -36 0 -35 0 0 60 0 60
-50 0 -50 0 2 -257 3 -258 38 -3 c35 -3 38 -6 33 -25 -3 -12 -6 -33 -6 -47 l0
-25 -107 1 -108 1 0 49 0 49 33 -3 32 -2 0 250 c0 137 1 253 3 258 1 4 -19 8
-45 10 l-48 3 0 -60 0 -61 -35 0 -35 0 0 110 0 110 203 -2 202 -3 3 -107z
m-2808 -888 l0 -50 -35 0 -35 0 0 -254 0 -255 33 -3 c31 -3 32 -5 35 -50 l3
-48 -110 0 -111 0 0 50 c0 50 0 50 33 50 l32 0 0 253 0 252 -32 3 c-28 3 -31
6 -35 45 -3 23 -3 45 -1 50 2 4 53 7 114 7 l109 0 0 -50z m458 -63 l3 -108
-38 3 -38 3 0 55 0 55 -47 3 -48 3 0 -255 0 -256 35 0 35 0 0 -50 0 -50 -111
0 -110 0 3 48 c3 45 4 47 36 50 l32 3 0 255 0 255 -47 -3 -47 -3 3 -57 2 -58
-35 0 -35 0 -3 100 c-2 55 -1 105 0 110 3 7 78 9 205 8 l202 -3 3 -108z m402
-191 l95 -304 39 -4 c21 -2 53 -2 72 0 l34 4 0 254 0 254 -29 0 c-27 0 -29 3
-33 43 -3 23 -3 45 -1 50 2 4 51 7 109 7 l104 0 0 -49 c0 -49 -1 -50 -32 -53
l-32 -3 -1 -252 0 -253 98 0 97 0 0 61 0 60 33 -3 32 -3 3 -107 3 -108 -206 0
-205 0 -1 33 -1 32 -10 -32 -11 -33 -103 0 c-85 0 -104 3 -105 15 -5 76 -3 80
24 83 31 4 31 6 16 68 l-11 44 -114 0 -113 0 -11 -41 c-6 -22 -13 -46 -16 -54
-4 -9 4 -15 23 -17 26 -3 28 -7 31 -50 l3 -48 -111 0 -111 0 3 48 c3 45 4 47
35 50 l33 3 80 248 c44 137 80 251 80 255 0 3 -13 6 -29 6 -26 0 -29 3 -33 39
-2 22 -2 45 0 50 2 7 38 11 91 11 l87 0 94 -304z m865 254 c0 -43 -1 -45 -32
-48 l-33 -3 0 -254 0 -253 35 -4 c19 -2 51 -2 70 0 29 4 36 9 45 41 7 20 43
131 81 248 38 116 69 214 69 217 0 3 -16 6 -36 6 l-35 0 3 48 3 47 88 3 c102
3 84 24 145 -173 23 -71 62 -198 88 -282 l47 -152 36 -3 c33 -3 36 -6 35 -33
-3 -71 6 -65 -113 -65 l-108 0 1 48 c1 44 3 47 29 50 25 3 28 7 22 29 -3 14
-9 38 -12 54 l-6 30 -115 -3 c-114 -3 -116 -3 -122 -28 -22 -81 -22 -78 7 -82
26 -3 28 -7 31 -50 l3 -48 -220 0 -219 0 -7 40 c-8 49 -2 60 36 60 l29 0 0
254 0 255 -32 3 c-29 3 -33 7 -36 36 -6 62 -3 63 115 60 l108 -3 0 -45z
m-1352 -906 c21 -12 32 -13 35 -5 2 6 19 11 38 11 l34 0 0 -90 0 -90 -40 0
c-35 0 -42 4 -51 27 -16 44 -39 63 -75 63 -47 0 -63 -9 -80 -42 -20 -38 -11
-90 18 -118 12 -11 48 -27 80 -36 123 -35 184 -113 176 -223 -6 -71 -33 -126
-81 -165 -49 -39 -128 -43 -176 -8 -38 28 -41 28 -41 -4 0 -23 -3 -25 -37 -22
l-37 3 0 105 -1 105 41 3 c39 3 41 2 53 -37 15 -51 53 -81 100 -81 58 1 101
48 101 113 0 54 -37 87 -130 118 -95 31 -134 67 -150 142 -36 161 95 297 223
231z m1425 -1 c26 -12 37 -14 40 -5 2 7 19 12 38 12 l34 0 0 -90 0 -90 -41 0
c-36 0 -41 3 -54 35 -17 40 -41 55 -88 55 -58 0 -93 -67 -67 -130 14 -35 40
-50 120 -73 80 -24 126 -66 146 -134 19 -65 14 -124 -15 -181 -23 -46 -46 -67
-94 -87 -51 -21 -85 -19 -136 10 -23 14 -44 25 -45 25 -2 0 -2 -10 -2 -22 1
-19 -5 -23 -37 -26 l-38 -3 3 108 3 108 40 0 c37 0 41 -3 51 -34 38 -116 187
-102 201 19 7 65 -17 91 -119 126 -94 33 -141 71 -157 129 -46 168 80 313 217
248z m-926 -3 c89 -25 137 -101 138 -216 0 -101 -35 -169 -106 -204 l-51 -24
51 -78 c46 -71 53 -78 83 -78 33 0 33 0 33 -50 l0 -51 -57 3 -58 3 -62 105
c-35 58 -76 127 -93 155 l-30 50 0 -108 0 -107 30 0 c29 0 30 -1 30 -50 l0
-50 -105 0 -105 0 0 50 0 50 35 0 35 0 0 255 0 255 -35 0 -35 0 0 50 0 50 133
0 c72 0 149 -5 169 -10z m428 -40 l0 -50 -35 0 -35 0 0 -255 0 -255 101 0 101
0 -4 58 -3 57 35 0 35 0 -2 -105 -2 -105 -199 -3 -200 -2 -4 42 c-6 54 -4 58
33 58 l29 0 0 255 0 255 -30 0 c-16 0 -30 3 -31 8 0 4 -2 23 -4 42 -2 19 -1
38 2 43 2 4 51 7 109 7 l104 0 0 -50z"/>
<path d="M2732 4862 c-37 -35 -46 -67 -39 -137 6 -55 52 -140 84 -152 18 -7
77 48 98 93 19 41 19 126 0 164 -33 64 -94 78 -143 32z"/>
<path d="M2719 4321 c-19 -16 -50 -56 -67 -89 -28 -52 -32 -70 -32 -134 0 -65
4 -80 29 -120 82 -129 217 -98 299 68 l25 52 -104 126 c-57 68 -106 125 -109
125 -3 1 -21 -12 -41 -28z"/>
<path d="M2360 3379 c-36 -14 -88 -68 -113 -114 -28 -55 -35 -177 -14 -240 24
-68 69 -119 128 -144 45 -20 57 -21 99 -11 63 15 113 58 146 127 39 78 39 185
2 258 -58 112 -156 160 -248 124z"/>
<path d="M1300 3265 l0 -115 45 0 c62 0 110 22 129 59 47 89 -14 171 -126 171
l-48 0 0 -115z"/>
<path d="M1769 3376 c-2 -2 -3 -66 -1 -141 l3 -137 53 6 c107 11 156 56 156
146 0 59 -22 95 -70 114 -36 14 -130 22 -141 12z"/>
<path d="M2606 2369 c-22 -64 -66 -216 -66 -226 0 -9 20 -13 75 -13 41 0 75 3
75 8 0 11 -70 235 -75 240 -2 3 -7 -1 -9 -9z"/>
<path d="M3918 2375 c-3 -6 -20 -57 -38 -114 -17 -57 -34 -110 -37 -118 -4
-10 12 -13 76 -13 45 0 81 3 81 8 -1 23 -77 244 -82 237z"/>
<path d="M2610 1345 l0 -135 50 0 c58 0 106 18 134 49 25 27 33 125 14 161
-19 37 -74 60 -140 60 l-58 0 0 -135z"/>
</g>
</svg>
